<svg viewBox="0 0 200 275" xmlns="http://www.w3.org/2000/svg">

  <!-- CROWN -->
  <path d="M74 60 L74 47 L84 55 L100 43 L116 55 L126 47 L126 60Z"
        fill="#CAFF15" stroke="#1A1B1F" stroke-width="2" stroke-linejoin="round"/>
  <circle cx="84" cy="54" r="3" fill="#1A1B1F"/>
  <circle cx="100" cy="44" r="3" fill="#1A1B1F"/>
  <circle cx="116" cy="54" r="3" fill="#1A1B1F"/>

  <!-- LONG ANTENNAE -->
  <path d="M91 59 Q72 40 50 15" stroke="#1A1B1F" stroke-width="2" stroke-linecap="round" fill="none"/>
  <path d="M109 59 Q128 40 150 15" stroke="#1A1B1F" stroke-width="2" stroke-linecap="round" fill="none"/>

  <!-- SHORT ANTENNULES (forked) -->
  <path d="M95 61 Q85 50 81 44" stroke="#1A1B1F" stroke-width="1.4" stroke-linecap="round" fill="none"/>
  <path d="M95 61 Q82 52 77 49" stroke="#1A1B1F" stroke-width="1.4" stroke-linecap="round" fill="none"/>
  <path d="M105 61 Q115 50 119 44" stroke="#1A1B1F" stroke-width="1.4" stroke-linecap="round" fill="none"/>
  <path d="M105 61 Q118 52 123 49" stroke="#1A1B1F" stroke-width="1.4" stroke-linecap="round" fill="none"/>

  <!-- EYE STALKS (lime filled) -->
  <path d="M84 65 L77 54 L74 56 L81 67Z" fill="#CAFF15" stroke="#1A1B1F" stroke-width="1.2"/>
  <path d="M116 65 L123 54 L126 56 L119 67Z" fill="#CAFF15" stroke="#1A1B1F" stroke-width="1.2"/>

  <!-- EYE BULBS -->
  <circle cx="75" cy="51" r="9" fill="#CAFF15" stroke="#1A1B1F" stroke-width="2"/>
  <circle cx="125" cy="51" r="9" fill="#CAFF15" stroke="#1A1B1F" stroke-width="2"/>
  <!-- Iris (dark) -->
  <circle cx="75" cy="53" r="5.5" fill="#1A1B1F"/>
  <circle cx="125" cy="53" r="5.5" fill="#1A1B1F"/>
  <!-- Pupil highlight (white spark) -->
  <circle cx="72" cy="50" r="2" fill="white"/>
  <circle cx="122" cy="50" r="2" fill="white"/>

  <!-- EYEBROWS — confident arch -->
  <path d="M67 42 Q75 37 83 41" stroke="#1A1B1F" stroke-width="3" stroke-linecap="round" fill="none"/>
  <path d="M117 41 Q125 37 133 42" stroke="#1A1B1F" stroke-width="3" stroke-linecap="round" fill="none"/>

  <!-- CARAPACE -->
  <ellipse cx="100" cy="97" rx="36" ry="42" fill="#CAFF15" stroke="#1A1B1F" stroke-width="2.2"/>
  <!-- Rostrum tip -->
  <path d="M96 58 Q100 52 104 58" stroke="#1A1B1F" stroke-width="1.5" fill="none"/>

  <!-- BIG CONFIDENT GRIN -->
  <path d="M84 100 Q100 116 116 100" stroke="#1A1B1F" stroke-width="2.5" stroke-linecap="round" fill="none"/>
  <!-- Teeth marks -->
  <line x1="91" y1="103" x2="91" y2="109" stroke="#1A1B1F" stroke-width="1.5"/>
  <line x1="100" y1="105" x2="100" y2="111" stroke="#1A1B1F" stroke-width="1.5"/>
  <line x1="109" y1="103" x2="109" y2="109" stroke="#1A1B1F" stroke-width="1.5"/>

  <!-- TIE -->
  <rect x="97" y="114" width="6" height="4" rx="1" fill="#1A1B1F"/>
  <path d="M97 118 L93 130 L100 134 L107 130 L103 118Z" fill="#1A1B1F"/>
  <!-- Tie pattern dot -->
  <circle cx="100" cy="124" r="2" fill="#CAFF15"/>

  <!-- LEFT ARM (filled lime pill) -->
  <path d="M64 104 Q50 98 38 104 Q50 122 64 116Z" fill="#CAFF15" stroke="#1A1B1F" stroke-width="1.8"/>
  <!-- LEFT CLAW -->
  <ellipse cx="24" cy="113" rx="16" ry="13" fill="#CAFF15" stroke="#1A1B1F" stroke-width="2" transform="rotate(-8 24 113)"/>
  <!-- Pincer gap -->
  <path d="M32 106 Q38 113 32 120" stroke="#1A1B1F" stroke-width="2" fill="none" stroke-linecap="round"/>

  <!-- RIGHT ARM -->
  <path d="M136 104 Q150 98 162 104 Q150 122 136 116Z" fill="#CAFF15" stroke="#1A1B1F" stroke-width="1.8"/>
  <!-- RIGHT CLAW -->
  <ellipse cx="176" cy="113" rx="16" ry="13" fill="#CAFF15" stroke="#1A1B1F" stroke-width="2" transform="rotate(8 176 113)"/>
  <!-- Pincer gap -->
  <path d="M168 106 Q162 113 168 120" stroke="#1A1B1F" stroke-width="2" fill="none" stroke-linecap="round"/>

  <!-- WALKING LEGS (4 per side) -->
  <path d="M72 118 Q61 131 57 143" stroke="#1A1B1F" stroke-width="1.8" stroke-linecap="round" fill="none"/>
  <path d="M75 126 Q64 139 61 153" stroke="#1A1B1F" stroke-width="1.8" stroke-linecap="round" fill="none"/>
  <path d="M78 133 Q69 146 67 159" stroke="#1A1B1F" stroke-width="1.8" stroke-linecap="round" fill="none"/>
  <path d="M81 138 Q75 151 74 163" stroke="#1A1B1F" stroke-width="1.8" stroke-linecap="round" fill="none"/>
  <path d="M128 118 Q139 131 143 143" stroke="#1A1B1F" stroke-width="1.8" stroke-linecap="round" fill="none"/>
  <path d="M125 126 Q136 139 139 153" stroke="#1A1B1F" stroke-width="1.8" stroke-linecap="round" fill="none"/>
  <path d="M122 133 Q131 146 133 159" stroke="#1A1B1F" stroke-width="1.8" stroke-linecap="round" fill="none"/>
  <path d="M119 138 Q125 151 126 163" stroke="#1A1B1F" stroke-width="1.8" stroke-linecap="round" fill="none"/>

  <!-- ABDOMEN SEGMENTS (closed, filled lime) -->
  <path d="M74 139 Q100 132 126 139 Q128 150 126 157 Q100 164 74 157 Q72 150 74 139Z"
        fill="#CAFF15" stroke="#1A1B1F" stroke-width="1.8"/>
  <path d="M77 157 Q100 164 123 157 Q121 169 118 175 Q100 182 82 175 Q79 169 77 157Z"
        fill="#CAFF15" stroke="#1A1B1F" stroke-width="1.6"/>
  <path d="M82 175 Q100 182 118 175 Q116 185 112 191 Q100 196 88 191 Q84 185 82 175Z"
        fill="#CAFF15" stroke="#1A1B1F" stroke-width="1.5"/>
  <path d="M88 191 Q100 196 112 191 Q110 201 106 206 Q100 210 94 206 Q90 201 88 191Z"
        fill="#CAFF15" stroke="#1A1B1F" stroke-width="1.4"/>

  <!-- TELSON FAN (5 filled blades) -->
  <path d="M84 208 Q68 226 71 244 Q79 250 87 244 Q83 226 90 210Z"
        fill="#CAFF15" stroke="#1A1B1F" stroke-width="1.5"/>
  <path d="M90 210 Q80 230 83 250 Q91 256 97 250 Q97 228 100 213Z"
        fill="#CAFF15" stroke="#1A1B1F" stroke-width="1.5"/>
  <path d="M100 213 Q100 232 100 252 Q106 256 110 250 Q110 228 100 213Z"
        fill="#CAFF15" stroke="#1A1B1F" stroke-width="1.5"/>
  <path d="M100 213 Q103 228 117 250 Q123 256 129 248 Q121 228 110 210Z"
        fill="#CAFF15" stroke="#1A1B1F" stroke-width="1.5"/>
  <path d="M110 210 Q117 226 129 244 Q129 252 116 248 Q113 228 116 208Z"
        fill="#CAFF15" stroke="#1A1B1F" stroke-width="1.5"/>

</svg>
